<svg version="1.1" width="516.5px" height="183px" viewBox="0 0 516.5 183">
<g>
  <path fill="#414042" d="M31.272,177.563c0,2.2-1.8,4-4,4H5.273c-2.2,0-4-1.8-4-4V5.086c0-2.2,1.8-4,4-4h21.999c2.2,0,4,1.8,4,4
    V177.563z"/>
</g>
<g>
  <path id="the-gate-part" fill="#414042" d="M468.146,22.099c-2.2,0-4,0-4-0.001s-1.8-0.001-4-0.001H176.201c-2.2,0-5.8,0-8,0h-22c-2.2,0-5.8,0-8,0
    h-11.76c-2.2,0-5.8,0-8,0h-22c-2.2,0-5.8,0-8,0H76.881c-2.2,0-5.8,0-8,0h-4.812c-2.2,0-5.8,0-8,0h-9.186c-2.2,0-4,1.8-4,4v151.466
    c0,2.2,1.8,4,4,4h9.186c2.2,0,5.8,0,8,0h4.812c2.2,0,5.8,0,8,0h11.561c2.2,0,5.8,0,8,0h22c2.2,0,5.8,0,8,0h11.76c2.2,0,5.8,0,8,0
    h22c2.2,0,5.8,0,8,0h11.838c2.2,0,5.8,0,8,0h22c2.2,0,5.8,0,8,0h12.859c2.2,0,5.8,0,8,0h22c2.2,0,5.8,0,8,0h11.359c2.2,0,4,0,4,0
    s1.8,0,4,0h22c2.2,0,4,0,4,0s1.8,0,4,0h12.162c2.2,0,4,0,4,0.001s1.8,0.001,4,0.001h22c2.2,0,4,0,4-0.001s1.8-0.001,4-0.001h11.837
    c2.2,0,4,0,4,0.001s1.8,0.001,4,0.001h22c2.2,0,4,0,4-0.001s1.8-0.001,4-0.001h11.89c2.2,0,4,0,4,0.001s1.8,0.001,4,0.001h22
    c2.2,0,4-1.8,4-4V26.099C472.146,23.898,470.347,22.099,468.146,22.099L468.146,22.099z M76.881,163.563c-2.2,0-4-1.8-4-4V44.097
    c0-2.2,1.8-4,4-4h11.561c2.2,0,4,1.8,4,4v115.466c0,2.2-1.8,4-4,4H76.881z M126.441,163.563c-2.2,0-4-1.8-4-4V44.097
    c0-2.2,1.8-4,4-4h11.76c2.2,0,4,1.8,4,4v115.466c0,2.2-1.8,4-4,4H126.441z M176.201,163.563c-2.2,0-4-1.8-4-4V44.097
    c0-2.2,1.8-4,4-4h11.838c2.2,0,4,1.8,4,4v115.466c0,2.2-1.8,4-4,4H176.201z M226.039,163.563c-2.2,0-4-1.8-4-4V44.097
    c0-2.2,1.8-4,4-4h12.859c2.2,0,4,1.8,4,4v115.466c0,2.2-1.8,4-4,4H226.039z M276.898,163.563c-2.2,0-4-1.8-4-4V44.097
    c0-2.2,1.8-4,4-4h11.359c2.2,0,4,1.8,4,4v115.466c0,2.2-1.8,4-4,4H276.898z M326.258,163.563c-2.2,0-4-1.8-4-4V44.097
    c0-2.2,1.8-4,4-4h12.162c2.2,0,4,1.8,4,4v115.466c0,2.2-1.8,4-4,4H326.258z M376.42,163.563c-2.2,0-4-1.8-4-4V44.097
    c0-2.2,1.8-4,4-4h11.837c2.2,0,4,1.8,4,4v115.466c0,2.2-1.8,4-4,4H376.42z M426.257,163.563c-2.2,0-4-1.8-4-4V44.097
    c0-2.2,1.8-4,4-4h11.89c2.2,0,4,1.8,4,4v115.466c0,2.2-1.8,4-4,4H426.257z"/>
</g>
<g>
  <path fill="#414042" d="M515.17,177.565c0,2.2-1.801,4-4,4h-22c-2.201,0-4-1.8-4-4V5.086c0-2.2,1.799-4,4-4h22c2.199,0,4,1.8,4,4
    V177.565z"/>
</g>
</svg>