<svg version="1.1" viewBox="0 0 263 161">
<path fill="#FFFFFF" d="M257.4,18.453c2.2,0,4-1.8,4-4v-10c0-2.2-1.8-4-4-4h-29.423c-0.003,0-0.007-0.001-0.01-0.001h-22
  c-0.003,0-0.007,0.001-0.01,0.001h-26.746c-0.002,0-0.003,0-0.005,0h-22c-0.002,0-0.003,0-0.005,0h-25.545
  c-0.003,0-0.007-0.001-0.01-0.001h-21.999c-2.2,0-4,1.8-4,4v65.987L70.171,35.493c-1.567-1.544-4.649-2.807-6.85-2.807H51.453
  c-2.2,0-3.271,1.646-2.382,3.658l11.782,26.627c0.89,2.012-0.182,3.658-2.382,3.658H7.878c-2.2,0-4,1.8-4,4V89.81c0,2.2,1.8,4,4,4
  h50.594c2.2,0,3.271,1.646,2.379,3.657l-11.776,26.562c-0.892,2.011,0.179,3.657,2.379,3.657h11.868c2.2,0,5.284-1.261,6.854-2.803
  l35.474-34.844v65.881c0,2.2,1.8,4,4,4h17.187h4.812h25.56h22h26.761h22H257.4c2.2,0,4-1.8,4-4v-10c0-2.2-1.8-4-4-4h-25.433V18.453
  H257.4z M135.647,18.453h17.56V141.92h-17.56V18.453z M201.968,141.92h-18.761V18.453h18.761V141.92z"/>
</svg>